<svg data-name="Layer 1" xmlns="http://www.w3.org/2000/svg" viewBox="0 0 196 76"><path d="M90.71 60.44l3.46-.06.15.14v2.22l-.15.14-3.46-.06h-4.63c0 .35 0 .71-.09 1.06h4.2l3.46-.06.14.15v2.23l-.14.14-3.46-.06h-2.82c1.71 1.34 4.11 2.07 7.45 2.44l-1.63 2.67a.21.21 0 01-.21.13 2.19 2.19 0 01-.31 0 13.67 13.67 0 01-7.82-4c-1.38 2.25-4 3.69-7.95 4.15-.21 0-.44 0-.52-.12l-1.48-2.33c3.77-.27 5.9-1.08 7-2.94h-2.58l-3.46.06-.15-.14V64l.15-.15 3.46.06h3.5a7.62 7.62 0 00.11-1.06h-4.11l-3.46.06-.15-.14v-2.25l.15-.14 3.46.06h4.25v-.87h-2l-3.46.06-.15-.15v-2l.15-.15 3.46.06h2v-.79h-3.33l-3.47.06-.14-.14v-2.21l.14-.15 3.47.07h.85a9.79 9.79 0 00-1.15-1.38l.07-.21 2.12-.92h.21a13.86 13.86 0 011.84 2.49H86a20.91 20.91 0 001.09-2.4l.19-.11 2.65.71.12.19c-.4.6-.73 1.13-1.06 1.61h.77l3.46-.07.15.15v2.17l-.15.14-3.46-.06h-3.6v.79h2.3l3.46-.06.14.15v2l-.14.15-3.46-.06h-2.3v.87zm20.86 0l3.46-.06.15.14v2.22l-.15.14-3.46-.06h-4.63c0 .35 0 .71-.09 1.06h4.2l3.46-.06.15.15v2.23l-.15.14-3.46-.06h-2.82c1.71 1.34 4.11 2.07 7.45 2.44l-1.63 2.67a.21.21 0 01-.21.13 2.19 2.19 0 01-.31 0 13.67 13.67 0 01-7.82-4c-1.38 2.25-4 3.69-7.95 4.15-.21 0-.44 0-.52-.12l-1.48-2.28c3.77-.27 5.9-1.08 7-2.94h-2.63l-3.46.06-.15-.14V64l.15-.15 3.46.06h3.5a7.62 7.62 0 00.11-1.06h-4.06l-3.46.06-.15-.14v-2.25l.15-.14 3.46.06h4.25v-.87h-2l-3.46.06-.15-.15v-2l.15-.15 3.46.06h2v-.79h-3.33l-3.47.06-.13-.18v-2.17l.14-.15 3.47.07h.85a9.79 9.79 0 00-1.15-1.38l.07-.21 2.13-.92h.2a13.86 13.86 0 011.84 2.49h2.34a22.72 22.72 0 001.08-2.4l.19-.11 2.65.71.12.19c-.39.6-.73 1.13-1.06 1.61h.77l3.46-.07.15.15v2.17l-.15.14-3.46-.06H107v.79h2.3l3.46-.06.14.15v2l-.14.15-3.46-.06H107v.87zm6.9-5.32l.11.15a33.84 33.84 0 01-.54 6.38l-.19.06-1.54-.66-.09-.19a32 32 0 00.54-6.07l.19-.08zm17.88 5.49l.13.12V63l-.13.13-2.61-.13h-2.81a12.83 12.83 0 005.69 6l-2 2.24a.39.39 0 01-.29.16.78.78 0 01-.4-.18 14.69 14.69 0 01-4.8-6 11.82 11.82 0 01-5 6.24.54.54 0 01-.25.08.28.28 0 01-.23-.1l-1.88-1.8v2h-3l.1-7.51V51.79l.15-.15h2.5l.15.15v3.44l.89-.52h.19a11 11 0 011.19 2.06v-1.56l.15-.13 2.67.06h.6v-3.08l.15-.17h2.56l.17.15v3.1h1.23l3.09-.06.14.13-.06 2.58v2.86zm-9.59-3.15l-2.61.06-1.42.88-.17-.06a12.41 12.41 0 00-.87-2.21v8l.08 5.51a18.82 18.82 0 002-1.4 9.24 9.24 0 002.71-3.79 10.78 10.78 0 00.4-1.42h-1.23l-3 .06-.15-.09v-2.25l.13-.14 3 .06h1.54c.09-1.06.15-2.15.17-3.21zm5.15 0h-1.71c0 1.06 0 2.15-.13 3.21h1.84zm22.76-.52l1.33-.11 1.19 1.05c.17.14.25.25.25.39a1.17 1.17 0 01-.12.4 8.14 8.14 0 01-.76 1.42c-.06.08-.1.12-.18.12a.41.41 0 01-.21 0l-1.71-.63a4.8 4.8 0 00.44-.83h-2.53v.5h.23l1.63-.15.08.11.09 1.31-.05.11h-1.98v.25c0 .27 0 .27.88.27 1.23 0 1.35-.08 1.46-.86l1.63.57c.16.06.18.12.16.27a1.66 1.66 0 01-.67 1.27c-.41.31-.91.4-2.89.4-2.38 0-2.76-.29-2.76-1.48v-.54h-.56l-.56.06A15.3 15.3 0 01148 67a3.92 3.92 0 001.76-3.82l.14-.1 2 .13.13.16c0 2.57-.67 4.09-2.19 5.09a.52.52 0 01-.23.11c-.09 0-.15-.07-.27-.17l-1.4-1.25a10.54 10.54 0 01-.61 1.14c-.08.15-.14.21-.22.21s-.15 0-.26-.14l-1.58-1.5a10.31 10.31 0 001.48-6.14v-3.7l.12-.14 2.36.06h.71v-2.07c-1.23.13-2.44.21-3.61.27v2.94c0 3.91-.29 6.68-1.56 9.18-.09.17-.17.27-.27.27a.62.62 0 01-.34-.18l-1.71-1.42v.77c.61 1.54 2.46 1.88 4.7 2 2.58.11 6.88-.08 10.47-.35L156.4 71c-.09.21-.15.21-.38.21-1.73.07-3.48.11-5.09.11-1.83 0-3.52 0-4.84-.15a6.6 6.6 0 01-4.84-2c-.77.65-1.58 1.38-2.39 2.13l-.19-.09-1.48-2.44.06-.18c.94-.59 1.69-1 2.5-1.51v-3h-.33l-1.69.06-.15-.12v-2.39l.13-.13 1.71.07h.29l2.61-.07.14.15-.06 3v1.05c1.09-2.13 1.27-4.3 1.27-7.43v-3.46l-.06-2.11.15-.14 2.1.41a53.07 53.07 0 008.58-1.18h.21a17.81 17.81 0 012.1 1.83v.23c-1.5.31-3 .56-4.55.75v.23h1.4l1.86-.06.14.14v1.46l-.14.13h-3.26v.48zm-13.37 3.52h-.23a19.53 19.53 0 00-3.22-2v-.17l1.28-1.89h.25a15 15 0 013.25 1.78v.21zm.5-4.29h-.25a19.63 19.63 0 00-3.24-2.07v-.17l1.4-1.81h.25a20.87 20.87 0 013.19 1.88v.26zm7.71 3.21h.69v-.63h-1.14v.69zm5.22 6.28c0 .33 0 .33.29.33s.44-.1.48-1.42l1.57.67c.18.08.2.17.2.35-.06 1.15-.23 1.63-.6 2s-1.06.54-2.19.54c-1.63 0-2-.29-2-1.84v-3.01l.12-.13h2l.13.15zm-62.8-44.19l-.05-9.3-4.51 7.57h-2.21l-4.49-7.31v9h-4.58V3.93h4.08l6.17 10.12 6-10.12h4.09v17.54zm22.15-3.83v3.83H100V3.93h13.75v3.83h-8.84v3h7.79v3.71h-7.79v3.21zm2.76-13.71h5v17.54h-5zm24.33 17.54v-9.3l-4.51 7.57h-2.26l-4.48-7.31v9h-4.59V3.93h4.09l6.16 10.12 6-10.12h4.08v17.54zm22.15-3.83v3.83h-14.08V3.93H163v3.83h-8.85v3h7.79v3.71h-7.79v3.21zm2.76-13.71h5v17.54h-5zM90.17 41v3.83H76.09V27.24h13.76v3.83H81v3h7.79v3.71H81V41zm13.68 3.78l-3.63-5.44-3.58 5.44H91l6.39-8.87-6.11-8.67h5.59l3.51 5.06 3.45-5.06h5.37l-6.12 8.47 6.52 9.07zM122.88 28a6.08 6.08 0 012.7 2.25 6.16 6.16 0 011 3.45 6.07 6.07 0 01-1 3.43 6.15 6.15 0 01-2.7 2.25 10.12 10.12 0 01-4.14.79h-3.06v4.58h-5V27.24h8a10 10 0 014.2.76zm-2.13 7.59a2.36 2.36 0 00.77-1.89 2.4 2.4 0 00-.77-1.9 3.39 3.39 0 00-2.31-.68h-2.76v5.14h2.76a3.5 3.5 0 002.31-.64zm15.86 4.53h-2.71v4.66h-5V27.24h8a10 10 0 014.14.79 5.93 5.93 0 013.65 5.7 5.85 5.85 0 01-3.43 5.54l3.78 5.51h-5.31zm2.39-8.29a3.35 3.35 0 00-2.3-.68h-2.8v5.14h2.76a3.45 3.45 0 002.3-.67 2.34 2.34 0 00.78-1.89 2.37 2.37 0 00-.74-1.9zM161.57 41v3.83h-14.08V27.24h13.75v3.83h-8.84v3h7.79v3.71h-7.79V41zm4.79 3.61a10.18 10.18 0 01-3.26-1.41l1.63-3.66a10.41 10.41 0 002.73 1.26 10.59 10.59 0 003.06.47c1.9 0 2.85-.47 2.85-1.43a1.18 1.18 0 00-.81-1.11 15.34 15.34 0 00-2.62-.77 24.06 24.06 0 01-3.31-.91 5.67 5.67 0 01-2.28-1.57 4.22 4.22 0 01-.95-2.9 5 5 0 01.88-2.9 5.81 5.81 0 012.61-2 10.86 10.86 0 014.28-.75 15.05 15.05 0 013.41.39 10.54 10.54 0 012.95 1.14L176 32.1a10.22 10.22 0 00-4.86-1.35 4 4 0 00-2.15.44 1.31 1.31 0 00-.68 1.14 1.14 1.14 0 00.8 1.05 16 16 0 002.58.73A22.73 22.73 0 01175 35a5.72 5.72 0 012.28 1.55 4.13 4.13 0 011 2.9 4.93 4.93 0 01-.88 2.86 6 6 0 01-2.63 2 10.64 10.64 0 01-4.26.76 16.18 16.18 0 01-4.15-.46zm16.21 0a10.28 10.28 0 01-3.26-1.41l1.63-3.66a10.93 10.93 0 005.79 1.73c1.9 0 2.86-.47 2.86-1.43a1.17 1.17 0 00-.82-1.11 15.06 15.06 0 00-2.62-.77 23.49 23.49 0 01-3.3-.91 5.54 5.54 0 01-2.28-1.57 4.18 4.18 0 01-1-2.9 5.09 5.09 0 01.88-2.9 5.84 5.84 0 012.62-2 10.78 10.78 0 014.27-.75 15.05 15.05 0 013.41.39 10.49 10.49 0 013 1.14l-1.53 3.68a10.22 10.22 0 00-4.86-1.35 4 4 0 00-2.16.44 1.31 1.31 0 00-.68 1.14 1.14 1.14 0 00.81 1.05 15.4 15.4 0 002.58.73 23.46 23.46 0 013.32.91 5.72 5.72 0 012.28 1.55 4.18 4.18 0 011 2.9 5 5 0 01-.87 2.86 6.07 6.07 0 01-2.63 2 10.64 10.64 0 01-4.26.76 16.31 16.31 0 01-4.18-.52zM54.22 14.57l-8.33-4.81a15.12 15.12 0 018.55-2.63 3.49 3.49 0 100-7A22 22 0 0039.42 6l-7.28-4.18a6.7 6.7 0 00-6.71 0L19 5.53A22 22 0 004.54.16a3.49 3.49 0 100 7 15.12 15.12 0 017.88 2.2l-9.07 5.21A6.7 6.7 0 000 20.38v25.5a6.72 6.72 0 003.36 5.81l17.18 9.92 8.29 14 8.29-14 17.19-9.92a6.73 6.73 0 003.35-5.81v-25.5a6.71 6.71 0 00-3.44-5.81zm-4.82 32.3l-19 11a3.19 3.19 0 01-3.19 0l-19-11a3.18 3.18 0 01-1.6-2.76v-20l22.17 12.82 14.81-8.56a3.29 3.29 0 10-3.29-5.69l-11.52 6.65L9.86 18.4l17.33-10a3.19 3.19 0 013.19 0l19 11A3.21 3.21 0 0151 22.15v9.56L28.78 44.53l-11.52-6.65a3.29 3.29 0 10-3.26 5.7l14.81 8.55L51 39.31v4.8a3.2 3.2 0 01-1.6 2.76z" fill="#fff"/></svg>