<svg data-name="Layer 1" xmlns="http://www.w3.org/2000/svg" viewBox="0 0 153 62"><path d="M71.58 48.29h2.62l.11.11V50l-.11.11-2.62-.05h-3.49c0 .27 0 .54-.06.81h5.78l.11.11v1.68l-.11.11h-4.74a11 11 0 005.62 1.84l-1.23 2a.17.17 0 01-.16.1h-.23a10.29 10.29 0 01-5.91-3c-1 1.7-3 2.79-6 3.14-.16 0-.33 0-.39-.1l-1.12-1.71c2.85-.21 4.46-.82 5.32-2.22h-4.59l-.11-.11V51l.11-.11h5.26a5.56 5.56 0 00.08-.81h-3.1l-2.62.05-.12-.13v-1.65l.12-.11h5.82v-.66h-4.09l-.11-.11V46l.11-.11 2.61.05h1.48v-.6h-5.13l-.11-.11v-1.57l.11-.11H64a7.54 7.54 0 00-.87-1l.05-.16 1.61-.69h.15a10.42 10.42 0 011.39 1.87H68a13.61 13.61 0 00.82-1.81l.14-.07 2 .53.1.14c-.3.46-.55.85-.81 1.21h3.2l.11.11v1.62l-.11.11h-5.3V46h1.73l2.62-.05.11.11v1.54l-.11.11h-4.35v.66zm15.75 0h2.61l.11.11V50l-.11.11-2.61-.05h-3.5q0 .41-.06.81h5.78l.11.11v1.68l-.11.11h-4.74a11 11 0 005.62 1.84l-1.23 2a.16.16 0 01-.16.1h-.23a10.32 10.32 0 01-5.91-3c-1 1.7-3 2.79-6 3.14-.16 0-.33 0-.39-.1l-1.12-1.71c2.85-.21 4.46-.82 5.32-2.22h-4.62l-.09-.19V51l.11-.11h5.26a5.56 5.56 0 00.08-.81h-3.1l-2.61.05-.11-.13v-1.65l.11-.11h5.82v-.66h-4.09l-.11-.11V46l.11-.11 2.61.05h1.48v-.6h-5.17l-.11-.11v-1.57l.11-.11h3.26a7.54 7.54 0 00-.87-1l.05-.16 1.61-.69h.15A10 10 0 0182 43.59h1.76a13.61 13.61 0 00.82-1.81l.14-.07 2 .53.1.14c-.3.46-.55.85-.8 1.21h3.19l.11.11v1.6l-.11.11h-5.32V46h1.74l2.61-.05.11.11v1.54l-.11.11h-4.35v.66zm5.2-4.02l.08.11a25.15 25.15 0 01-.41 4.82h-.14l-1.16-.51-.07-.14a24.15 24.15 0 00.41-4.55l.14-.06zM106 48.41l.09.1v1.68l-.09.1h-4.13a9.78 9.78 0 004.3 4.52l-1.51 1.68a.29.29 0 01-.22.13.57.57 0 01-.3-.14 11.16 11.16 0 01-3.62-4.52 9 9 0 01-3.79 4.71.36.36 0 01-.19.06.21.21 0 01-.18-.08L95 55.25v1.49h-2.25l.08-5.67v-9.32l.11-.11h1.89l.11.11v2.6l.68-.39h.14a8.5 8.5 0 01.9 1.56v-1.2l.11-.09h2.45V42l.11-.13h1.94l.13.11v2.35h3.25l.12.09-.05 2v2.15zM98.79 46h-2l-1.07.67-.13-.05a8.42 8.42 0 00-.66-1.67v6l.07 4.28a14.51 14.51 0 001.51-1 7 7 0 002-2.87 7.14 7.14 0 00.3-1.07h-3.18l-.11-.1v-1.67l.1-.11 2.27.05h1.21c.06-.8.11-1.62.13-2.42zm3.88 0h-1.29c0 .8 0 1.62-.09 2.42h1.38zm17.18-.36l1-.08.89.79c.13.11.19.19.19.3a.91.91 0 01-.09.3 6.52 6.52 0 01-.57 1.07.16.16 0 01-.14.09.34.34 0 01-.16 0l-1.29-.47A3.2 3.2 0 00120 47h-1.9v.38h.17l1.23-.11.06.08.06 1v.08h-1.49v.19c0 .2 0 .2.66.2.93 0 1-.06 1.1-.64l1.23.42c.13 0 .14.1.13.21a1.3 1.3 0 01-.51 1c-.31.23-.69.3-2.19.3-1.79 0-2.08-.22-2.08-1.12v-.41h-.85a11.64 11.64 0 01-.78 4.63 3 3 0 001.32-2.88l.11-.08 1.49.09.1.13c0 1.93-.5 3.08-1.65 3.84a.34.34 0 01-.18.08c-.06 0-.11 0-.2-.13l-1.06-.94a7.09 7.09 0 01-.45.86c-.07.11-.11.16-.18.16s-.11 0-.19-.11l-1.19-1.13a7.8 7.8 0 001.12-4.63v-2.8l.1-.12h2.31v-1.47c-.93.1-1.84.16-2.72.21v2.22c0 2.94-.22 5-1.18 6.93-.06.12-.13.2-.21.2a.49.49 0 01-.25-.14l-1.29-1.07V53c.46 1.17 1.86 1.42 3.54 1.5 2 .08 5.2-.07 7.91-.27l-.88 2c-.07.16-.11.16-.29.16-1.3 0-2.63.08-3.84.08-1.38 0-2.66 0-3.65-.11a5 5 0 01-3.66-1.52c-.58.49-1.19 1-1.81 1.61l-.14-.06-1.12-1.85v-.14c.71-.44 1.28-.78 1.89-1.13V51H107v-1.81l.1-.1h3.51l.11.11v3.06a11.66 11.66 0 001-5.61v-4.24l.11-.12 1.59.32a40.84 40.84 0 006.48-.9h.15a14 14 0 011.59 1.39v.17c-1.14.24-2.29.43-3.43.57v.17h2.4l.11.11v1.11l-.11.09h-2.4v.36zm-10.09 2.66h-.18a14 14 0 00-2.42-1.52v-.13l1-1.43h.19a11.43 11.43 0 012.45 1.34v.16zm.37-3.24h-.19a14.27 14.27 0 00-2.44-1.56v-.13l1.04-1.37h.19a15 15 0 012.43 1.39v.19zm5.87 2.42h.52V47h-.87v.52zm3.94 4.74c0 .26 0 .26.22.26s.33-.08.36-1.07l1.18.5c.14.06.16.13.16.27 0 .86-.18 1.23-.46 1.51s-.8.41-1.65.41c-1.23 0-1.51-.22-1.51-1.39v-2.32l.09-.1h1.48l.1.11zM72.5 18.88v-7l-3.4 5.71h-1.71L64 12.06v6.82h-3.45V5.65h3.08l4.65 7.64 4.54-7.64h3.08v13.23zM89.22 16v2.89H78.59V5.65H89v2.89h-6.71v2.23h5.89v2.8h-5.89V16zM91.3 5.65H95v13.23h-3.7zm18.36 13.23v-7l-3.4 5.71h-1.67l-3.38-5.52v6.82h-3.5V5.65h3.08l4.65 7.64L110 5.65h3.08v13.23zM126.38 16v2.89h-10.63V5.65h10.38v2.89h-6.68v2.23h5.89v2.8h-5.89V16zm2.08-10.35h3.74v13.23h-3.74zM71.18 33.58v2.89H60.55V23.23h10.38v2.9h-6.68v2.23h5.89v2.8h-5.89v2.42zm10.32 2.89l-2.74-4.1-2.71 4.1h-4.27l4.82-6.69-4.6-6.55h4.22l2.64 3.83 2.61-3.83h4.05l-4.61 6.4 4.91 6.84zm14.35-12.64a4.61 4.61 0 012.05 1.7 4.68 4.68 0 01.72 2.6 4.47 4.47 0 01-2.77 4.29 7.65 7.65 0 01-3.12.59h-2.3v3.46h-3.75V23.23h6a7.49 7.49 0 013.17.6zm-1.6 5.73a1.77 1.77 0 00.58-1.43 1.8 1.8 0 00-.58-1.43 2.58 2.58 0 00-1.74-.51h-2.08v3.87h2.08a2.58 2.58 0 001.74-.5zM106.22 33h-2v3.51h-3.75V23.23h6a7.49 7.49 0 013.12.6 4.67 4.67 0 012.05 1.7 4.76 4.76 0 01.71 2.6 4.39 4.39 0 01-2.59 4.18l2.86 4.16h-4zm1.78-6.3a2.62 2.62 0 00-1.74-.51h-2.08v3.87h2.08a2.62 2.62 0 001.74-.5 1.77 1.77 0 00.58-1.43 1.8 1.8 0 00-.58-1.43zm17.05 6.88v2.89h-10.63V23.23h10.39v2.9h-6.68v2.23H124v2.8h-5.88v2.42zm3.61 2.76a7.63 7.63 0 01-2.45-1.06l1.23-2.76a8.33 8.33 0 004.36 1.31q2.16 0 2.16-1.08a.9.9 0 00-.61-.84 10.53 10.53 0 00-2-.58 20.79 20.79 0 01-2.5-.69 4.25 4.25 0 01-1.72-1.18 3.22 3.22 0 01-.72-2.2 3.74 3.74 0 01.67-2.18 4.39 4.39 0 012-1.54 8.12 8.12 0 013.22-.54 11.71 11.71 0 012.57.29 8.29 8.29 0 012.23.86L136 26.9a7.76 7.76 0 00-3.67-1 3.08 3.08 0 00-1.63.33 1 1 0 00-.51.86.86.86 0 00.6.8 12 12 0 001.95.55 17.07 17.07 0 012.51.69 4.26 4.26 0 011.72 1.17 3.15 3.15 0 01.73 2.18 3.72 3.72 0 01-.66 2.16 4.58 4.58 0 01-2 1.54 8.08 8.08 0 01-3.21.58 12.49 12.49 0 01-3.17-.42zm12.24 0a7.59 7.59 0 01-2.46-1.06l1.23-2.76a8 8 0 002.06.95 7.83 7.83 0 002.31.36c1.44 0 2.15-.36 2.15-1.08a.88.88 0 00-.61-.84 10.53 10.53 0 00-2-.58 21.1 21.1 0 01-2.49-.69 4.25 4.25 0 01-1.72-1.18 3.22 3.22 0 01-.72-2.2 3.81 3.81 0 01.66-2.18 4.42 4.42 0 012-1.54 8.07 8.07 0 013.22-.57 11.64 11.64 0 012.57.29 8.16 8.16 0 012.23.86l-1.15 2.78a7.7 7.7 0 00-3.67-1 3.07 3.07 0 00-1.62.33 1 1 0 00-.51.86.86.86 0 00.6.8 11.39 11.39 0 002 .55 16.9 16.9 0 012.5.69 4.13 4.13 0 011.72 1.17 3.11 3.11 0 01.73 2.18 3.72 3.72 0 01-.66 2.16 4.49 4.49 0 01-2 1.54 8.16 8.16 0 01-3.22.58 12.47 12.47 0 01-3.15-.42z"/><path d="M44 13.67l-6.28-3.62a11.4 11.4 0 016.45-2 2.63 2.63 0 100-5.26 16.6 16.6 0 00-11.29 4.44l-5.5-3.18a5.08 5.08 0 00-5.06 0l-4.85 2.8a16.63 16.63 0 00-10.92-4 2.63 2.63 0 100 5.26 11.4 11.4 0 016 1.66l-6.89 3.9a5.08 5.08 0 00-2.54 4.39V37.3a5 5 0 002.54 4.38l13 7.49 6.26 10.55 6.26-10.55 13-7.49a5 5 0 002.53-4.38V18.06A5.07 5.07 0 0044 13.67zm-3.59 24.38l-14.36 8.29a2.39 2.39 0 01-2.4 0L9.29 38.05A2.41 2.41 0 018.09 36V20.87l16.76 9.68L36 24.09a2.48 2.48 0 10-2.49-4.3l-8.69 5-14.25-8.22L23.65 9a2.39 2.39 0 012.4 0l14.36 8.29a2.41 2.41 0 011.2 2.08v7.22l-16.76 9.7-8.7-5a2.48 2.48 0 00-2.48 4.3L24.85 42l16.76-9.68V36a2.41 2.41 0 01-1.2 2.05z" fill="#e5811e"/></svg>