<svg data-name="Layer 1" xmlns="http://www.w3.org/2000/svg" viewBox="0 0 46 27"><rect x=".51" width="45.49" height="26.69" rx="4.4" fill="#fff"/><path d="M23.15 18.19a8.34 8.34 0 01-6 1.83 8.84 8.84 0 01-8.26-9.15A8.52 8.52 0 0113.94 3a8.55 8.55 0 019.31 1 5.18 5.18 0 01-.4.41 6.3 6.3 0 00-1.52 1.7 8.91 8.91 0 00-1.33 6.5 8.57 8.57 0 003.24 5.5z" fill="#d60301"/><path d="M23.15 18.19l.06-.08A6.51 6.51 0 0025 16.39a8.77 8.77 0 001.63-6.78 8.8 8.8 0 00-1.83-4.15c-.42-.53-1-.92-1.35-1.48a7.93 7.93 0 014.08-1.76 8.84 8.84 0 019.28 4.9 9.05 9.05 0 01-2.21 10.76 8.9 8.9 0 01-10.91.57c-.2-.1-.33-.26-.54-.26z" fill="#e98a10"/><path d="M23.41 4c.38.56.93.95 1.35 1.48a8.8 8.8 0 011.83 4.15A8.77 8.77 0 0125 16.39a6.51 6.51 0 01-1.75 1.72 8.57 8.57 0 01-3.25-5.5 8.91 8.91 0 011.36-6.49 6.3 6.3 0 011.52-1.7 5.18 5.18 0 00.4-.41z" fill="#da5802"/><path d="M10.27 23.29v-.92c0-.31.32-.35.4-.24.2.27.33.11.5 0a.69.69 0 01.81.06c.24.22.37.16.61 0a.9.9 0 011.42.74v1.3c0 .19-.07.24-.25.24s-.25-.07-.24-.25v-1.06c0-.35-.12-.6-.51-.61s-.61.21-.61.63v1c0 .33 0 .3-.26.29s-.26-.09-.25-.29v-1.1c0-.37-.16-.55-.52-.55s-.58.17-.58.55v1.11c0 .19-.06.28-.27.28s-.28-.08-.27-.28 0-.61 0-.91zm25.45-1.03v-.82c0-.28.11-.25.29-.26s.23.1.23.27v2.74c0 .38-.29.38-.42.27s-.28-.07-.42 0a1.09 1.09 0 01-1.4-.37 1.34 1.34 0 01.06-1.64 1.06 1.06 0 011.39-.24c.09.03.14.12.27.05zm0 1a.74.74 0 00-.76-.75.78.78 0 000 1.55.75.75 0 00.79-.76zM17 23.3v.86c0 .29-.18.43-.35.3s-.41 0-.61 0A1.12 1.12 0 0114.7 24a1.31 1.31 0 01.1-1.6 1.05 1.05 0 011.3-.26.3.3 0 00.41 0c.19-.14.47-.09.44.3s0 .57 0 .86zm-1.18.8a.8.8 0 00.71-.81.76.76 0 00-.78-.74.78.78 0 00.07 1.55zm15.61-.79a8.19 8.19 0 000 .86c0 .37-.24.4-.41.28s-.27-.06-.42 0a1.07 1.07 0 01-1.35-.38 1.3 1.3 0 010-1.63 1 1 0 011.33-.26.28.28 0 00.38 0c.16-.13.44-.14.42.24s0 .61 0 .91zm-.44 0a.74.74 0 10-1.47.05.76.76 0 00.73.74.79.79 0 00.75-.79zm-7.41.19a3.09 3.09 0 00-.43 0c-.13 0-.33-.09-.38.08s.11.31.26.41a.74.74 0 00.82 0c.18-.09.27-.08.38.1s-.07.27-.19.33a1.28 1.28 0 01-1.52-.13 1.33 1.33 0 01-.26-1.51 1.18 1.18 0 011.25-.69 1.15 1.15 0 01.94 1.26c0 .14-.12.16-.24.16h-.63zm-.27-.35c.18-.13.54.16.57-.19s-.25-.4-.54-.4-.6.11-.57.42.36.02.54.17zm-4.78 1.43a2 2 0 01-.84-.21c-.08 0-.29-.06-.16-.25s.14-.24.34-.15a1.25 1.25 0 00.79.11c.13 0 .32-.06.33-.23s-.17-.2-.3-.24-.32-.05-.47-.09c-.37-.08-.67-.25-.68-.68s.29-.65.67-.75a1.45 1.45 0 011 .13c.08 0 .32 0 .2.23s-.13.31-.36.22a1.22 1.22 0 00-.75-.11c-.13 0-.25.12-.25.25s.13.18.24.21l.57.09c.37.05.64.21.65.63a.7.7 0 01-.63.77zm1.82-1.26c-.09-.23.25-.7-.37-.74-.12 0-.08-.19-.08-.3s.07-.19.18-.17c.32 0 .28-.18.27-.37s0-.33.27-.33.34.06.29.3.12.43.43.4.39-.08.39.25-.19.29-.38.26c-.36-.05-.5.08-.44.44a2.57 2.57 0 010 .48c0 .44.15.61.57.47s.27.1.35.25-.1.22-.21.26c-.86.31-1.28-.07-1.27-1.2zm6.25-.2a1.09 1.09 0 01.6-.88 1.44 1.44 0 011.38 0c.18.09.12.17.05.29s-.13.23-.35.14c-.62-.28-1.1 0-1.11.64a.69.69 0 001 .68c.24-.11.33-.08.43.14s-.12.28-.25.33a1.31 1.31 0 01-1.75-1.34zm-1.6.17v-.92c0-.31.28-.34.37-.24.24.28.41.08.61 0a.51.51 0 01.51 0c.11.08 0 .2 0 .3s-.15.12-.26.12c-.56 0-.69.17-.69.74v.91c0 .3 0 .29-.25.29s-.27-.1-.26-.29 0-.32 0-.48zm7.09.02v-.91c0-.3.21-.38.35-.27s.48.06.72 0a.37.37 0 01.44.07c.08.1 0 .2-.07.31s-.18.08-.29.08c-.45 0-.63.21-.61.65s0 .64 0 1 0 .33-.27.33-.29-.1-.28-.31 0-.58 0-.87z" fill="#101011"/><path d="M37.25 24.17a.22.22 0 01.24.19.22.22 0 01-.21.26.24.24 0 01-.27-.21c-.01-.16.11-.22.24-.24z" fill="#101564"/></svg>