<svg id="Layer_1" data-name="Layer 1" xmlns="http://www.w3.org/2000/svg" viewBox="0 0 20 20"><defs><style>.cls-1{fill:#fff}</style></defs><path class="cls-1" d="M10.09 5.6c2.84 0 4.61-.15 4.85 3h3.46c0-4.87-4.24-5.53-8.4-5.53s-8.4.66-8.4 5.53H5c.27-3.21 2.25-3 5.06-3zm-6.77 4.56c.84 0 1.54.05 1.7-.78a2.17 2.17 0 000-.38H1.59c0 1.23.77 1.16 1.73 1.16zM15 9a2 2 0 000 .38c.17.77.87.72 1.71.72s1.73.06 1.73-1.1zm0 0"/><path class="cls-1" d="M13.28 8.16v-.49c0-.22-.26-.23-.57-.23h-.51c-.31 0-.56 0-.56.23v.75H8v-.75c0-.22-.25-.23-.56-.23H7c-.31 0-.57 0-.57.23v.91a37 37 0 00-3.6 4.93v2.93a.49.49 0 00.49.49h13.1a.49.49 0 00.49-.49v-3a37.58 37.58 0 00-3.6-4.91zM7.86 13.9a.48.48 0 11.48-.48.47.47 0 01-.48.48zm0-1.64a.48.48 0 11.48-.47.47.47 0 01-.48.47zm0-1.63a.48.48 0 11.48-.48.48.48 0 01-.48.48zm2 3.27a.48.48 0 11.47-.48.47.47 0 01-.47.48zm0-1.64a.48.48 0 11.47-.47.47.47 0 01-.47.47zm0-1.63a.48.48 0 11.47-.48.48.48 0 01-.47.48zm2 3.27a.48.48 0 11.48-.48.48.48 0 01-.48.48zm0-1.64a.48.48 0 11.48-.47.48.48 0 01-.48.47zm0-1.63a.48.48 0 11.48-.48.49.49 0 01-.48.48zm0 0"/></svg>