<svg id="Layer_1" data-name="Layer 1" xmlns="http://www.w3.org/2000/svg" viewBox="0 0 206 123"><defs><style>.cls-1{fill:#fff}</style></defs><path class="cls-1" d="M105 71h1.33a1.66 1.66 0 011.73 1.24c.72 2 1.47 4 2.22 5.91.3.77.59 1.55 1 2.29a13.6 13.6 0 002 3 15.18 15.18 0 001.65 1.75 28.25 28.25 0 002.22 1.81c1.63 1.16 3.27 2.31 4.9 3.45l2.42 1.69V81.68c0-.24-.15-.34-.28-.47-.63-.64-1.29-1.26-1.9-1.91a15.59 15.59 0 01-1.29-1.71c-.66-.93-1.29-1.88-1.87-2.86a22.57 22.57 0 01-2-4.69l2.84-1c.54 1.2 1 2.4 1.61 3.58a17.44 17.44 0 002.42 3.86c.54.62 1.08 1.26 1.68 1.83a18.45 18.45 0 003.84 2.84 19.24 19.24 0 003.13 1.36 14.73 14.73 0 003.41.74 25.27 25.27 0 002.88.16 26.08 26.08 0 003.05-.33 2 2 0 011.81.55c.9.86 1.85 1.67 2.78 2.5l1.29 1.18 2.74 2.51 1.8 1.63 3.05 2.76c.55.49 1.08 1 1.65 1.46a3.59 3.59 0 001.78.81 4 4 0 002.57-.37 3.69 3.69 0 002-3 3.63 3.63 0 00-1.13-3.1l-19.15-19.09a3 3 0 00-.28-.24l2.28-2.27a1 1 0 00.14.27c1.72 1.72 3.44 3.45 5.17 5.16a.64.64 0 00.41.18h18.47l-.53-.7-2.18-2.86-2.66-3.39c-.79-1-1.55-2-2.33-3.07l-2.2-2.85c-.34-.43-.63-.9-1-1.31a5 5 0 00-2.79-1.52c-2.58-.62-5.16-1.28-7.74-1.92l-7.27-1.82-7.67-1.93-7.52-1.88c-.81-.2-1.62-.37-2.44-.56a3.07 3.07 0 00-.53-.07c-.66 0-1.32-.06-2-.06H105v-3h17.83a2 2 0 00.26.06c.21 0 .43 0 .64.08l2.61.61 7.27 1.82 7.74 1.93 7.27 1.82 7.28 1.82a9.16 9.16 0 013.16 1.14 8.44 8.44 0 011.61 1.29c.7.77 1.3 1.64 1.94 2.47s1.44 1.88 2.17 2.88c1 1.28 2 2.55 3 3.83l2.33 3.07c1 1.29 2 2.56 3 3.86a.6.6 0 00.54.28h16.52a6.39 6.39 0 011.31.12 4.22 4.22 0 013.07 2.27 11.3 11.3 0 01.52 1.41v40.5a.47.47 0 00-.06.09 6.24 6.24 0 01-.42 1.24 4.46 4.46 0 01-2.72 2.25l-.67.17h-62.78c-.38-.11-.77-.21-1.14-.34a4.36 4.36 0 01-2.77-4V96.18a.5.5 0 00-.2-.47l-4.33-3c-1.68-1.17-3.34-2.36-5-3.52a20.07 20.07 0 01-3-2.47c-.43-.43-.81-.9-1.2-1.37a14.54 14.54 0 01-2.19-3.35c-.61-1.34-1.14-2.71-1.68-4.07-.46-1.15-.89-2.32-1.3-3.48-.11-.33-.27-.48-.61-.4zm48.8 6.06l-.06.09a1.71 1.71 0 01.27.2l10.22 10.22c.31.32.6.66.88 1a6.7 6.7 0 011.44 4 7.78 7.78 0 01-.11 1.27 6.12 6.12 0 01-.94 2.52 6.75 6.75 0 01-2.36 2.3 6.39 6.39 0 01-2.81.88 14 14 0 01-2.14-.11 5.36 5.36 0 01-2.74-1.17c-1.13-.93-2.2-2-3.29-2.92l-1.33-1.22-2.83-2.55-1.39-1.27-2.93-2.65c-.43-.39-.85-.79-1.3-1.16-.14-.11-.24-.32-.52-.29a22.93 22.93 0 01-2.48.27 20.38 20.38 0 01-4.05-.21 23.9 23.9 0 01-3.33-.75 21.59 21.59 0 01-3.76-1.51l-.68-.37v33.91a1.54 1.54 0 001.52 1.52h61.38a1.71 1.71 0 00.8-.22 1.53 1.53 0 00.75-1.49V78.8a2.84 2.84 0 00-.1-.64 1.57 1.57 0 00-1.59-1.08H153.8z"/><path class="cls-1" d="M166.48 107.05a7.5 7.5 0 016-7.36 7.35 7.35 0 014.62.53 4.78 4.78 0 01.45.23.36.36 0 00.41 0 7.2 7.2 0 015.48-.66 7.34 7.34 0 012.46 1.17 7.67 7.67 0 012.13 2.37 7.19 7.19 0 01.88 2.42 8 8 0 01-.44 4.15 7.48 7.48 0 01-1.94 2.77 7 7 0 01-3.74 1.79 9.61 9.61 0 01-1.93.1 6.34 6.34 0 01-2.72-.79.68.68 0 00-.75 0 7.2 7.2 0 01-4.07.8 7.54 7.54 0 01-6.11-4.2 6.12 6.12 0 01-.67-2.29c-.01-.34-.04-.68-.06-1.03zm10.58 0a4.46 4.46 0 108.92 0 4.46 4.46 0 00-8.92 0zm-1.8 4.26a7.65 7.65 0 010-8.49 4.34 4.34 0 00-4.9 1.65 4.47 4.47 0 00.28 5.54 4.29 4.29 0 004.62 1.3zM162 110.07h-30v-3h30zm-30 5.99v-3h30v3zm54-32.99h-22.48v-3H186zm-1.46 2.98v3h-15v-3zm-51.03 13.51v-3H141v3zM150 96.55v3h-6v-3z"/><path class="cls-1" d="M90.86 32.62c0 13-9.56 26.48-22.55 39.8l-24.26 25.8h50.4v24.09H4.92v-19.65l42.72-45.27c6.66-7 11.45-15 11.45-20.5 0-6.84-5-10.94-13.5-10.94-9.74.05-21.7 5.81-32.59 15.21L1.51 19.29C16.54 8 32.94 1.35 50 1.35c23.78 0 40.86 12.3 40.86 31.27z" opacity=".2"/></svg>