<svg id="Layer_1" data-name="Layer 1" xmlns="http://www.w3.org/2000/svg" viewBox="0 0 206 123"><defs><style>.cls-1{fill:#fff}</style></defs><path class="cls-1" d="M122.21 116.57a2.26 2.26 0 01-1.36-1.12l-4.32-6.23-4.38-6.22-4.4-6.28c-.34-.49-.71-1-1-1.47a1.41 1.41 0 01.34-1.87l1-.76 6.25-4.38c2.14-1.5 4.29-3 6.42-4.5a1.56 1.56 0 012.21.42c.44.73 1 1.41 1.47 2.12 2.92-1.92 5.61-4.2 8.88-5.6V41.47a4.19 4.19 0 012.84-4 10.3 10.3 0 011.25-.28h45.15l.67.14a4.15 4.15 0 013.35 4v38.73a.49.49 0 00.23.37 5.64 5.64 0 01-.5 10.34c-1.69.67-3.42 1.25-5.13 1.87l-7.91 2.87-8.46 3.08c-2.72 1-5.44 2-8.18 2.93a14.84 14.84 0 01-4.53.76c-.76 0-1.53 0-2.29-.07s-1.31-.13-2-.23c-1.12-.17-2.24-.45-3.37-.53a14.19 14.19 0 00-3.12.14 11.66 11.66 0 00-4.8 2l.7 1a1.5 1.5 0 01-.24 2.07c-1 .72-2 1.4-3 2.11l-6.25 4.38c-.9.63-1.77 1.31-2.7 1.9a10.62 10.62 0 01-2.51 1.55zm61.49-36.79V48.46H167v7.04a1.43 1.43 0 01-.26.78 1.41 1.41 0 01-2.23.11L160 51.87c-.09.11-.18.22-.27.31l-4.18 4.19a1.66 1.66 0 01-1.53.46 1.46 1.46 0 01-1.07-1.45v-6.91h-16.71v31l3.16-.84a22.68 22.68 0 014.7-.68 35.06 35.06 0 014 .06c1.15.08 2.31.26 3.46.43s2.29.37 3.43.58l3.91.7c1 .18 2 .34 3 .51s2 .4 3.07.56a5.87 5.87 0 012.48 1 1.12 1.12 0 00.55.21h9.26a1.78 1.78 0 00.55-.1l2.7-1zm-35.27 6.58L152 87l3.43.59c1.26.23 2.51.48 3.77.7 1.44.26 2.89.44 4.33.75a3 3 0 002.81-1.14 2.74 2.74 0 00-1.08-4 7 7 0 00-1.52-.37c-1.31-.25-2.63-.48-3.94-.72l-2.73-.5-2.87-.5c-1-.18-2.08-.36-3.12-.52-1.19-.18-2.37-.4-3.56-.47a25.6 25.6 0 00-3.61.07 32.38 32.38 0 00-3.52.49 24.72 24.72 0 00-6.2 2.07 28 28 0 00-4 2.37c-1.35 1-2.72 1.9-4.1 2.86l8.77 12.53a16 16 0 014.25-2 13.06 13.06 0 013.61-.6 28.94 28.94 0 012.94.15c.84.08 1.67.26 2.5.39s1.54.26 2.31.3a22.54 22.54 0 002.32-.06 11.45 11.45 0 003.12-.62c1.87-.65 3.72-1.32 5.58-2l7.9-2.88 8.46-3.08c2.43-.88 4.86-1.73 7.28-2.64a2.76 2.76 0 10-1.69-5.25l-5.33 2-8.17 3c-.2.07-.45.09-.55.36a5.46 5.46 0 01-1.88 2.63 5.1 5.1 0 01-3.32 1.15 20.72 20.72 0 01-2.58-.34q-2.57-.42-5.13-.87l-4.21-.78-4.38-.75c.21-1.09.37-2.02.54-2.96zm-25.67 26.73l11.38-8c-.86-1.21-1.72-2.41-2.56-3.62-1.59-2.26-3.16-4.54-4.74-6.81s-3-4.33-4.56-6.5q-.47-.68-.93-1.32l-11.38 8c.22.3.41.55.59.81l4.17 6 3.51 5c1.28 1.84 2.55 3.68 3.83 5.51.22.28.45.59.69.93zm44.27-73v5.5h16.67a.6.6 0 000-.12v-4.09a1 1 0 000-.24 1.47 1.47 0 00-1.56-1.05H167zm-14.11 0h-15.15a1.48 1.48 0 00-1.56 1.58v3.92h16.71zM155.81 52c.14-.13.23-.21.31-.3l2.67-2.74a1.53 1.53 0 012.35 0c.86.89 1.74 1.75 2.61 2.62l.36.34V40.07h-8.3z"/><path class="cls-1" d="M61.57 50.09C79 52.83 91.3 64.27 91.3 82.72c0 22.9-17.94 39-45.79 39-16.4 0-33.66-5.81-44.59-14.52l12.3-23.07c8.88 9.57 19.13 14.52 29.9 14.52 12 0 18.45-5.8 18.45-15.54C61.57 73 54.91 68 43 68H23.81V51.8l26.65-27.68H6.9V.89h78.93v17.25l-29.9 31.1z" opacity=".2"/></svg>