<svg id="Layer_1" data-name="Layer 1" xmlns="http://www.w3.org/2000/svg" viewBox="0 0 206 123"><defs><style>.cls-2{fill:#fff}</style></defs><path class="cls-2" d="M21.6 119.31V24h-22V-.46H52v119.77z" opacity=".2"/><path class="cls-2" d="M75 55.71c.17-.62.29-1.26.51-1.86a7.55 7.55 0 014.32-4.43 8.46 8.46 0 013.3-.59h48a1.61 1.61 0 11.19 3.22H82.66a4.37 4.37 0 00-3.71 2.15 4.9 4.9 0 00-.81 2.8v48.93a4.69 4.69 0 003.46 4.71 3.57 3.57 0 001 .14h78.29a4.63 4.63 0 004.33-3.47 7.1 7.1 0 00.17-1.53v-29a1.57 1.57 0 011.61-1.7 1.53 1.53 0 011.52 1.67v29.62a7.38 7.38 0 01-1.5 4.5 7.16 7.16 0 01-3.84 2.75 9.19 9.19 0 01-2.5.39H82.74a7.54 7.54 0 01-4.91-1.77 8.06 8.06 0 01-2.75-4.59c0-.17-.06-.34-.09-.51z"/><path class="cls-2" d="M181 51.63a.58.58 0 00-.08.22 20.82 20.82 0 01-1.49 7.68 21.34 21.34 0 01-3 5.32 24.34 24.34 0 01-2.1 2.44 22.51 22.51 0 01-7 4.76 23.08 23.08 0 01-5.52 1.58 24.08 24.08 0 01-4.79.23 17.82 17.82 0 01-4.7-.81 25.14 25.14 0 01-3.9-1.5 35 35 0 01-3.8-2.38c-.64-.44-1.19-1-1.8-1.5a.88.88 0 00-.53-.16h-16.12a1.64 1.64 0 01-1.54-1.51 1.56 1.56 0 011.56-1.6H140c-.24-.39-.45-.74-.65-1.09-.32-.53-.65-1.06-.93-1.62a.55.55 0 00-.57-.35h-11.67a1.5 1.5 0 01-1.55-1.56 1.62 1.62 0 011.57-1.6h10.67c-.19-.79-.41-1.53-.54-2.29-.17-1-.29-2-.39-3a16.78 16.78 0 01-.08-2.35 23.26 23.26 0 011.46-7.23 22.35 22.35 0 012.5-4.77 22.89 22.89 0 013.64-4.1 22.37 22.37 0 0111-5.34 22.84 22.84 0 015.41-.3 21.33 21.33 0 019.4 2.78 34.44 34.44 0 013.59 2.42 19.91 19.91 0 014.53 5.11 21.63 21.63 0 013.11 7.68 19.49 19.49 0 01.42 4 .87.87 0 00.08.21zm-41.92-.3A19.38 19.38 0 00158.3 70.7a19.43 19.43 0 0019.45-18.64A19.44 19.44 0 00158.57 32a19.36 19.36 0 00-19.49 19.33zm-37.71 6.84h9.42a7.54 7.54 0 014.89 1.83 7.76 7.76 0 012.57 4.23 7 7 0 01.19 1.65v18.76a7.38 7.38 0 01-1.74 4.71 7.87 7.87 0 01-4.12 2.65 6 6 0 01-1.51.24H91.89a7.37 7.37 0 01-5.15-2.11 7.65 7.65 0 01-2.26-4 5.21 5.21 0 01-.14-1V65.95a7.75 7.75 0 016.34-7.74 6.46 6.46 0 011.25-.09c3.13.04 6.29.05 9.44.05zm12 29.89h.17a4.4 4.4 0 001.64-3.3V65.87a3.87 3.87 0 00-.12-1 4.63 4.63 0 00-4.61-3.56H92.5a6.19 6.19 0 00-1.49.17A4.54 4.54 0 0087.48 66v17.53a10.81 10.81 0 00.09 1.8 4.44 4.44 0 001.72 2.85 12.86 12.86 0 016.46-7.5 9.11 9.11 0 1111.75-13.9 8.5 8.5 0 013 6.37 9 9 0 01-3.5 7.48 13 13 0 016.41 7.43zm-12-8.75a5.88 5.88 0 10-5.9-5.94 5.84 5.84 0 005.89 5.94zm-9 9.73h17.88a9.39 9.39 0 00-17.88 0zm29.39 6.31h35.9a1.54 1.54 0 011.6 1.59 1.59 1.59 0 01-1.6 1.57h-71.8a1.57 1.57 0 01-1.52-1.18c-.09-1.1.2-1.6 1.06-1.94a1.4 1.4 0 01.46 0zm0 6.2h35.9a1.47 1.47 0 011.59 1.59 1.46 1.46 0 01-1.59 1.55h-71.8a1.6 1.6 0 01-.46-3.12 1.17 1.17 0 01.46 0zm20.17-15.45h-15.65a1.53 1.53 0 01-1.52-.91 1.63 1.63 0 01.22-1.74 1.67 1.67 0 011.37-.58h31.18a1.68 1.68 0 011.68 1.27 1.63 1.63 0 01-1.55 2h-15.73zm-.02 6.19h-15.65a1.6 1.6 0 01-1.17-2.74 2.44 2.44 0 011.24-.47 15.2 15.2 0 011.91 0h29.14a1.63 1.63 0 11.31 3.24h-11.45z"/><path class="cls-2" d="M155.15 59.86a3.18 3.18 0 01-2.55-1c-1.38-1.4-2.76-2.8-4.18-4.16a1.69 1.69 0 010-2.2 1.6 1.6 0 012.28-.08l4 4c.41.42.5.42.91 0q5.25-5.25 10.49-10.51a1.64 1.64 0 011.82-.37 1.45 1.45 0 011 1.34 1.68 1.68 0 01-.59 1.42Q163 53.58 157.7 58.84a3.12 3.12 0 01-2.55 1.02z"/></svg>