<svg data-name="Layer 1" xmlns="http://www.w3.org/2000/svg" viewBox="0 0 58 27"><rect x=".25" width="57.38" height="26.69" rx="4.4" fill="#fff"/><path d="M38.55 20.41C40 17 41.4 13.63 42.8 10.28c.49-1.17 1-2.33 1.47-3.51a1.87 1.87 0 012-1.29h2.55c.34 0 .49.08.57.44q1.38 7 2.82 14c.07.38.06.53-.39.51h-2.61c-.31 0-.46-.06-.53-.39-.12-.61 0-1.45-.47-1.75s-1.21-.09-1.84-.09h-2.36c-.6-.06-.78.28-.9.71-.43 1.53-.42 1.53-2 1.53zm8-10.7h-.11c-.62 1.72-1.24 3.43-1.87 5.15-.14.37.13.29.31.29h2.29c.38 0 .48-.06.39-.47-.34-1.68-.66-3.31-.99-4.97zm-31.67 5.91c1.31-3.33 2.56-6.48 3.78-9.63a.66.66 0 01.78-.52h2.91c.52 0 .51.14.33.53-.64 1.36-1.27 2.73-1.81 4.12s-1.2 3-1.78 4.43c-.71 1.8-1.49 3.58-2.22 5.37a.63.63 0 01-.69.48h-3.16a.42.42 0 01-.5-.37c-.57-2.33-1.15-4.65-1.75-7q-.63-2.47-1.31-4.95a1.52 1.52 0 00-.81-.93A15.62 15.62 0 005.35 6c-.16 0-.47 0-.44-.29s.33-.23.53-.23h5.94a1.74 1.74 0 011.89 1.59c.45 2.32.87 4.64 1.3 7 .09.43.18.93.31 1.55zm17.18 5.01a13.2 13.2 0 01-3.64-.54c-.44-.13-.63-.29-.49-.79a20.84 20.84 0 00.47-2.19c.07-.42.18-.53.6-.32a7.16 7.16 0 003.59.73 2.94 2.94 0 001.5-.41 1.15 1.15 0 00.16-2 6.17 6.17 0 00-1.39-.85 10.07 10.07 0 01-1.95-1.21 3.84 3.84 0 01-.58-5.55 6.31 6.31 0 014.6-2.24 10.15 10.15 0 014.13.45c.34.1.43.24.35.6a13.05 13.05 0 00-.49 2.23c0 .36-.14.51-.56.32a6.3 6.3 0 00-2.94-.52 4.63 4.63 0 00-.83.13c-.54.15-1.05.39-1.16 1s.4.89.78 1.25a10.94 10.94 0 002.16 1.21 4 4 0 012.39 3.66 4.6 4.6 0 01-2.65 4.17 8.6 8.6 0 01-4.05.87zm-8.78-.24h-1.45c-.45 0-.47-.07-.38-.46.51-2.18 1-4.37 1.43-6.55.51-2.43 1.06-4.85 1.52-7.28.09-.47.22-.68.76-.65.91.06 1.82 0 2.73 0 .35 0 .49 0 .4.45q-1.53 7-3 14c-.08.38-.2.55-.62.51s-.92-.02-1.39-.02z" fill="#101564"/></svg>